<?xml version="1.0" standalone="no"?>
<!DOCTYPE svg PUBLIC "-//W3C//DTD SVG 20010904//EN"
 "http://www.w3.org/TR/2001/REC-SVG-20010904/DTD/svg10.dtd">
<svg version="1.0" xmlns="http://www.w3.org/2000/svg"
 width="260.000000pt" height="260.000000pt" viewBox="0 0 260.000000 260.000000"
 preserveAspectRatio="xMidYMid meet">
<metadata>
Created by potrace 1.14, written by Peter Selinger 2001-2017
</metadata>
<g transform="translate(0.000000,260.000000) scale(0.100000,-0.100000)"
fill="#000000" stroke="none">
<path d="M0 1300 l0 -1300 1300 0 1300 0 0 1300 0 1300 -1300 0 -1300 0 0
-1300z m1448 860 c12 -14 38 -25 83 -32 l66 -12 58 -255 c32 -141 67 -295 78
-343 l20 -88 68 0 c52 0 69 -3 69 -14 0 -9 -22 -18 -62 -26 l-63 -12 33 -13
c17 -8 32 -19 32 -25 0 -6 31 -10 80 -10 78 0 80 -1 80 -24 0 -28 -38 -49
-121 -68 -68 -14 -72 -18 -58 -54 7 -19 12 -140 15 -342 3 -274 1 -312 -11
-302 -20 17 -20 10 10 -145 30 -154 29 -145 7 -145 -11 0 -22 12 -29 31 -16
41 -36 30 -21 -12 12 -36 4 -48 -23 -31 -16 10 -20 10 -24 -3 -3 -8 -7 -22
-10 -31 -3 -8 -12 -14 -22 -12 -12 2 -29 47 -64 166 -26 90 -50 166 -53 169
-3 4 -6 -12 -6 -35 0 -31 -4 -42 -15 -42 -8 0 -15 1 -15 3 0 1 -9 54 -20 117
-11 63 -20 117 -20 119 0 2 12 -4 26 -14 14 -9 28 -14 31 -11 8 8 -18 143 -32
162 -7 11 -11 33 -7 56 4 30 1 38 -11 38 -10 0 -17 -10 -19 -27 -2 -14 -9 -28
-17 -31 -10 -3 -12 7 -10 46 3 36 1 48 -8 45 -9 -4 -13 7 -13 36 0 41 14 53
36 31 6 -6 8 15 6 56 -3 55 -6 65 -20 62 -10 -3 -106 -24 -214 -48 -168 -38
-198 -47 -198 -62 0 -20 16 -18 93 8 30 11 49 11 81 3 28 -7 56 -7 86 0 49 11
63 7 58 -16 -2 -11 -42 -25 -134 -48 -137 -34 -242 -81 -267 -119 -8 -11 -20
-46 -27 -76 -18 -80 -55 -174 -84 -217 -14 -21 -26 -46 -26 -55 0 -14 -8 -18
-33 -18 -18 0 -39 6 -45 12 -10 10 -15 10 -21 -1 -7 -11 -13 -10 -35 4 -31 20
-31 26 -10 89 18 53 15 63 -15 47 -22 -12 -41 -67 -41 -120 0 -34 0 -34 -21
-15 -19 17 -20 26 -14 82 6 61 5 66 -21 93 l-27 29 41 102 c23 57 84 207 137
333 53 127 110 265 127 308 32 78 48 91 58 46 8 -34 40 -38 40 -6 0 14 3 32 6
40 3 10 -1 15 -12 14 -25 -3 -29 25 -14 106 9 50 16 67 26 63 8 -3 11 0 8 9
-3 7 4 31 16 54 21 42 45 52 68 29 9 -9 12 -7 12 10 0 16 -9 27 -29 35 l-28
12 50 138 50 137 38 0 c30 0 37 -3 33 -15 -5 -11 -2 -14 12 -9 11 4 24 10 29
14 12 8 92 37 120 43 50 11 87 7 103 -13z m72 -1390 c0 -45 -4 -60 -14 -60 -8
0 -17 13 -20 30 -3 17 -9 44 -12 60 -5 27 -3 30 20 30 25 0 26 -2 26 -60z"/>
<path d="M1238 1518 l-76 -203 56 -3 c35 -2 72 3 99 13 45 18 93 66 93 93 -1
33 -77 296 -86 299 -5 2 -44 -88 -86 -199z"/>
<path d="M1116 1530 c-15 -58 -21 -68 -33 -59 -19 16 -24 7 -17 -29 11 -53 28
-37 57 51 29 88 32 107 19 107 -5 0 -16 -32 -26 -70z"/>
<path d="M907 1413 c-11 -10 -8 -43 3 -43 6 0 10 4 10 9 0 5 3 16 6 25 6 16
-7 22 -19 9z"/>
<path d="M1039 1335 c-13 -22 -19 -65 -9 -65 6 0 13 6 16 14 7 19 1 64 -7 51z"/>
<path d="M857 1313 c-10 -19 -17 -63 -9 -63 5 0 16 16 25 35 14 29 14 35 2 35
-7 0 -16 -3 -18 -7z"/>
<path d="M1278 1282 c-43 -8 -78 -20 -78 -25 0 -16 125 0 173 22 40 19 41 19
12 19 -16 0 -65 -7 -107 -16z"/>
<path d="M1757 683 c-9 -14 13 -113 25 -113 11 0 9 37 -6 85 -7 24 -15 35 -19
28z"/>
<path d="M1573 633 c-7 -2 -13 -13 -13 -24 0 -15 4 -17 23 -10 12 5 23 16 25
25 3 16 -11 19 -35 9z"/>
</g>
</svg>
