<svg viewBox="0 0 50 50" xmlns="http://www.w3.org/2000/svg"><path d="m23.38 0.03121c-2.653 0.2652-4.215 0.5793-6.298 1.267-3.714 1.228-6.957 3.222-9.767 6.04-3.861 3.85-6.249 8.613-7.084 14.06-0.2551 1.659-0.3143 5.028-0.1077 6.56 0.7566 5.736 3.154 10.69 7.094 14.63 2.044 2.053 4.038 3.506 6.534 4.773 2.584 1.296 5.267 2.112 8.303 2.514 1.395 0.177 4.815 0.1474 6.239-0.05916 5.65-0.8149 10.47-3.202 14.39-7.13 3.93-3.919 6.318-8.731 7.134-14.39 0.2357-1.621 0.2357-4.96 0-6.58-1.091-7.543-5.139-13.85-11.48-17.88-2.771-1.768-6.308-3.074-9.678-3.575-1.288-0.1861-4.363-0.3335-5.287-0.2356zm-2.987 4.656 1.769 0.894-1.091 2.121c-0.5995 1.159-1.081 2.131-1.061 2.141 0.01939 0.01989 0.3735-0.04896 0.7959-0.1474 1.366-0.3238 2.535-0.4223 4.421-0.3636 1.994 0.05916 3.056 0.2453 4.785 0.8149 2.142 0.717 4.215 1.915 5.944 3.447 3.93 3.487 6.004 8.613 5.64 13.93-0.2163 3.084-1.316 6.148-3.115 8.692-0.8449 1.198-2.761 3.113-3.95 3.948-4.421 3.123-9.825 3.997-14.96 2.426-5.816-1.778-10.27-6.6-11.6-12.57-0.5209-2.367-0.55-4.773-0.05918-7.17 0.2949-1.444 0.973-3.428 1.179-3.428 0.1378 0 3.96 1.385 4.058 1.473 0.03928 0.02957-0.07857 0.4615-0.2653 0.9429-0.5699 1.483-0.7862 2.691-0.776 4.508 0 1.709 0.1179 2.495 0.6189 3.997 0.5796 1.748 1.533 3.28 2.918 4.705 5.984 6.158 16.25 4.596 20.16-3.074 0.9041-1.778 1.307-3.457 1.316-5.529 0.0199-2.151-0.3342-3.722-1.248-5.598-1.749-3.595-4.873-6.011-8.833-6.836-1.287-0.2749-3.35-0.2948-4.618-0.04896-1.504 0.2846-1.562 0.1963 0.9923 1.473 1.248 0.6288 2.28 1.159 2.28 1.188 0 0.1081-1.779 3.585-1.828 3.585-0.03928 0-2.506-1.247-5.492-2.76l-5.434-2.77 1.906-3.742c1.052-2.053 2.299-4.508 2.771-5.441 0.4714-0.9231 0.8842-1.689 0.9235-1.689 0.04898-5.1e-4 0.8745 0.4024 1.857 0.8838z" fill="#fff"/></svg>
