<svg xmlns="http://www.w3.org/2000/svg" viewBox="0 0 1000 1000"><path transform="translate(0,511) scale(0.1,-0.1)" fill="white" d="M4682.9,5006.1c-520-52-826.2-113.6-1234.5-248.4c-728-240.7-1363.5-631.7-1914.3-1184.4C777.3,2818.3,309.3,1884.3,145.6,815.4C95.6,490,84-170.6,124.5-471c148.3-1124.7,618.2-2095.3,1390.5-2869.5c400.6-402.5,791.5-687.5,1280.7-935.9c506.5-254.2,1032.3-414.1,1627.3-493c273.5-34.7,943.7-28.9,1222.9,11.6c1107.4,159.8,2052.9,627.8,2821.3,1398.1c770.3,768.4,1238.3,1712.1,1398.2,2821.3c46.2,317.8,46.2,972.5,0,1290.3c-213.8,1479-1007.2,2715.4-2249.4,3507c-543.1,346.7-1236.4,602.8-1896.9,701C5466.7,4996.4,4863.9,5025.3,4682.9,5006.1z M4097.5,4093.2l346.7-175.3l-213.8-416c-117.5-227.2-211.8-417.9-208-419.8c3.8-3.9,73.2,9.6,156,28.9c267.7,63.5,496.9,82.8,866.6,71.3c390.9-11.6,598.9-48.1,937.9-159.8c419.8-140.6,826.2-375.5,1165.1-676c770.3-683.7,1176.7-1689,1105.4-2730.8C8211-989,7995.4-1589.9,7642.9-2088.7c-165.6-235-541.2-610.5-774.2-774.2c-866.6-612.4-1925.8-783.8-2933.1-475.7C2795.6-2990,1923.2-2044.4,1661.3-873.5c-102.1,464.1-107.8,936-11.6,1405.9c57.8,283.1,190.7,672.1,231.1,672.1c27,0,776.1-271.5,795.4-288.9c7.7-5.8-15.4-90.5-52-184.9c-111.7-290.8-154.1-527.7-152.1-883.9c0-335.1,23.1-489.2,121.3-783.8c113.6-342.8,300.4-643.2,572-922.5c1172.8-1207.5,3185.3-901.3,3951.8,602.8c177.2,348.6,256.1,677.9,258,1084.2c3.9,421.7-65.5,729.9-244.6,1097.7c-342.8,704.9-955.2,1178.6-1731.3,1340.4c-252.3,53.9-656.7,57.8-905.1,9.6c-294.7-55.8-306.2-38.5,194.5-288.9c244.6-123.3,446.8-227.3,446.8-233c0-21.2-348.6-702.9-358.2-702.9c-7.7,0-491.1,244.6-1076.5,541.2l-1065,543.1l373.6,733.7c206.1,402.5,450.6,884,543.1,1066.9c92.4,181,173.3,331.2,181,331.2C3743.1,4266.6,3904.9,4187.6,4097.5,4093.2z"/></svg>
