<?xml version="1.0" standalone="no"?>
<!DOCTYPE svg PUBLIC "-//W3C//DTD SVG 20010904//EN"
 "http://www.w3.org/TR/2001/REC-SVG-20010904/DTD/svg10.dtd">
<svg version="1.0" xmlns="http://www.w3.org/2000/svg"
 width="512.000000pt" height="512.000000pt" viewBox="0 0 512.000000 512.000000"
 preserveAspectRatio="xMidYMid meet">
<metadata>
Created by potrace 1.14, written by Peter Selinger 2001-2017
</metadata>
<g transform="translate(0.000000,512.000000) scale(0.100000,-0.100000)"
fill="#000000" stroke="none">
<path d="M0 2560 l0 -2560 2560 0 2560 0 0 2560 0 2560 -2560 0 -2560 0 0
-2560z m2847 2011 c45 -45 107 -67 218 -77 l73 -7 14 -61 c8 -33 79 -346 159
-693 l144 -633 138 0 c105 0 137 -3 137 -13 0 -9 -38 -19 -117 -32 -114 -19
-118 -21 -121 -46 -3 -24 1 -27 40 -33 48 -8 78 -30 78 -58 0 -17 11 -18 160
-18 l160 0 0 -24 c0 -49 -87 -91 -280 -133 -63 -14 -116 -27 -117 -28 -2 -1
16 -56 38 -123 l41 -122 -20 -58 c-19 -58 -19 -59 0 -176 l20 -118 -28 -29
c-23 -24 -25 -29 -10 -29 13 0 16 -4 9 -12 -7 -9 -4 -84 8 -218 22 -246 25
-490 7 -472 -7 7 -25 12 -40 12 -24 0 -28 -3 -23 -22 6 -26 115 -570 115 -575
0 -2 -13 -3 -30 -3 -27 0 -30 3 -30 31 0 36 -47 89 -79 89 -26 0 -26 -16 -2
-97 20 -67 12 -83 -24 -43 -10 11 -31 20 -47 20 -26 0 -28 -3 -28 -40 0 -27
-7 -47 -20 -60 -27 -27 -38 -25 -46 6 -4 14 -48 166 -98 338 -90 304 -92 311
-119 314 l-27 3 0 -80 c0 -60 -3 -81 -13 -81 -9 0 -23 59 -46 198 -18 108 -35
208 -38 221 l-6 24 30 -18 c16 -9 40 -26 54 -36 l24 -19 -22 -6 c-20 -6 -23
-13 -23 -56 0 -50 0 -50 28 -44 15 4 46 14 70 23 40 15 42 17 42 58 0 52 -4
56 -41 43 -17 -6 -32 -9 -34 -6 -2 2 -9 46 -15 98 -19 161 -58 291 -92 303
-10 3 -9 9 5 24 12 14 17 37 17 81 l0 62 -50 0 -50 0 0 -54 c0 -30 -4 -58 -10
-61 -6 -4 -10 22 -10 71 0 66 3 81 22 101 l21 23 -29 0 c-17 0 -35 -5 -42 -12
-9 -9 -12 2 -12 50 0 68 12 79 45 42 18 -20 75 -28 75 -12 0 5 -9 17 -20 27
-18 16 -20 31 -20 142 0 67 -4 123 -9 123 -7 0 -738 -164 -868 -195 -20 -5
-23 -12 -23 -56 0 -43 2 -50 18 -45 9 3 74 21 144 41 l126 36 80 -21 c84 -21
98 -20 250 15 19 5 22 1 22 -25 0 -16 -3 -30 -6 -30 -3 0 -78 -16 -167 -35
-346 -74 -571 -172 -635 -277 -11 -18 -30 -76 -43 -128 -48 -206 -126 -398
-195 -479 -25 -29 -34 -49 -34 -75 l0 -36 -53 0 c-41 0 -58 5 -72 20 -22 24
-75 27 -75 5 0 -12 -11 -8 -45 15 -25 17 -45 34 -45 39 0 4 16 54 35 111 45
135 45 134 -7 126 -80 -13 -116 -78 -133 -240 l-7 -58 -27 26 -28 26 20 121
20 120 -58 59 -58 59 16 43 c80 205 656 1573 664 1575 6 2 14 -12 17 -31 9
-46 42 -86 72 -86 13 0 24 2 24 4 0 2 9 48 20 101 27 130 26 135 -8 102 -44
-43 -52 -36 -52 45 0 74 29 248 41 248 3 0 12 -7 19 -15 7 -8 26 -15 43 -15
l31 0 -27 28 c-15 15 -27 36 -27 45 0 28 73 167 88 167 8 0 25 -9 39 -20 14
-11 36 -20 49 -20 21 0 24 5 24 39 0 50 -30 88 -75 97 -19 3 -35 9 -35 13 0 3
41 124 92 268 l93 263 64 0 c51 0 62 -3 53 -12 -10 -10 -18 -68 -9 -68 2 0 44
20 93 44 106 53 194 84 289 101 110 21 118 19 162 -24z m131 -2773 c2 -87 0
-108 -11 -108 -10 0 -19 30 -30 100 -22 126 -22 122 11 118 l27 -3 3 -107z"/>
<path d="M2572 3693 c-5 -15 -76 -201 -157 -413 -81 -212 -150 -393 -152 -402
-5 -16 4 -18 91 -18 245 0 395 76 436 220 6 20 -14 109 -74 331 -79 297 -82
304 -107 307 -21 2 -29 -2 -37 -25z"/>
<path d="M2184 3345 c-34 -124 -39 -134 -54 -120 -20 18 -70 20 -70 3 0 -7 4
-29 9 -48 6 -19 15 -54 21 -77 10 -38 14 -43 40 -43 28 0 29 2 89 183 34 100
61 194 61 210 0 23 -4 27 -29 27 -28 0 -29 -2 -67 -135z"/>
<path d="M1762 3097 c-16 -17 -22 -36 -22 -70 0 -45 1 -47 29 -47 27 0 31 5
50 62 12 34 21 66 21 70 0 18 -58 7 -78 -15z"/>
<path d="M2001 2875 c-11 -46 -21 -87 -21 -90 0 -16 59 -2 78 18 18 19 22 35
22 90 l0 67 -29 0 c-28 0 -29 -3 -50 -85z"/>
<path d="M1645 2843 c-10 -43 -20 -84 -22 -90 -4 -9 5 -13 26 -13 28 0 34 6
71 80 22 44 40 84 40 90 0 5 -22 10 -48 10 l-48 0 -19 -77z"/>
<path d="M2530 2839 c-102 -21 -186 -38 -187 -39 -2 0 -3 -13 -3 -30 0 -29 2
-30 43 -30 56 0 227 26 287 44 82 24 130 58 130 90 0 14 -98 1 -270 -35z"/>
<path d="M3457 1643 c-13 -12 -7 -67 15 -160 21 -90 23 -93 50 -93 27 0 28 2
28 53 0 28 -4 68 -9 87 -6 19 -15 54 -21 78 -9 34 -15 42 -34 42 -12 0 -26 -3
-29 -7z"/>
</g>
</svg>
